<svg width="48" height="48" viewBox="0 0 48 48" fill="none" xmlns="http://www.w3.org/2000/svg">
<rect opacity="0.1" width="48" height="48" rx="12" fill="#2E6EDF"/>
<path d="M21.3333 24C24.2789 24 26.6667 21.6122 26.6667 18.6667C26.6667 15.7212 24.2789 13.3334 21.3333 13.3334C18.3878 13.3334 16 15.7212 16 18.6667C16 21.6122 18.3878 24 21.3333 24Z" fill="#2E6EDF"/>
<path d="M21.8 26.6801C18.16 26.5467 10.6667 28.3601 10.6667 32.0001V33.3334C10.6667 34.0667 11.2667 34.6667 12 34.6667H23.3867C20.0934 30.9867 21.7467 26.8134 21.8 26.6801Z" fill="#2E6EDF"/>
<path d="M33.9067 32.0267C34.5333 30.9601 34.84 29.6667 34.5467 28.2667C34.0933 26.0801 32.2533 24.3334 30.04 24.0534C26.5333 23.6001 23.5733 26.5467 24.04 30.0534C24.3333 32.2667 26.0667 34.1067 28.2533 34.5601C29.6533 34.8534 30.9467 34.5467 32.0133 33.9201L34.4933 36.4001C35.0133 36.9201 35.8533 36.9201 36.3733 36.4001C36.8933 35.8801 36.8933 35.0401 36.3733 34.5201L33.9067 32.0267ZM29.3333 32.0001C27.8667 32.0001 26.6667 30.8001 26.6667 29.3334C26.6667 27.8667 27.8667 26.6667 29.3333 26.6667C30.8 26.6667 32 27.8667 32 29.3334C32 30.8001 30.8 32.0001 29.3333 32.0001Z" fill="#2E6EDF"/>
</svg>
