<svg width="48" height="48" viewBox="0 0 48 48" fill="none" xmlns="http://www.w3.org/2000/svg">
<rect opacity="0.1" width="48" height="48" rx="12" fill="#2E6EDF"/>
<path d="M22.92 9.81337L13.5867 13.96C12.6267 14.3867 12 15.3467 12 16.4V22.6667C12 30.0667 17.12 36.9867 24 38.6667C30.88 36.9867 36 30.0667 36 22.6667V16.4C36 15.3467 35.3733 14.3867 34.4133 13.96L25.08 9.81337C24.4 9.50671 23.6 9.50671 22.92 9.81337ZM20.3867 29.72L16.9333 26.2667C16.4133 25.7467 16.4133 24.9067 16.9333 24.3867C17.4533 23.8667 18.2933 23.8667 18.8133 24.3867L21.3333 26.8934L29.1733 19.0534C29.6933 18.5334 30.5333 18.5334 31.0533 19.0534C31.5733 19.5734 31.5733 20.4134 31.0533 20.9334L22.2667 29.72C21.76 30.24 20.9067 30.24 20.3867 29.72Z" fill="#2E6EDF"/>
</svg>
