<svg width="48" height="48" viewBox="0 0 48 48" fill="none" xmlns="http://www.w3.org/2000/svg">
<rect opacity="0.1" width="48" height="48" rx="12" fill="#2E6EDF"/>
<path d="M33.7334 30.5333C34.5067 29.1866 35 27.56 34.4134 25.6666C33.7067 23.3733 31.6934 21.6 29.2934 21.3733C25.4667 21 22.32 24.1333 22.6934 27.9733C22.9334 30.36 24.6934 32.3866 26.9867 33.0933C28.8934 33.68 30.5067 33.1866 31.8534 32.4133L35.1867 35.7466C35.7067 36.2666 36.5334 36.2666 37.0534 35.7466C37.5734 35.2266 37.5734 34.4 37.0534 33.88L33.7334 30.5333ZM28.6667 30.6666C26.8 30.6666 25.3334 29.2 25.3334 27.3333C25.3334 25.4666 26.8 24 28.6667 24C30.5334 24 32 25.4666 32 27.3333C32 29.2 30.5334 30.6666 28.6667 30.6666ZM24 34.6666V37.3333C16.64 37.3333 10.6667 31.36 10.6667 24C10.6667 16.64 16.64 10.6666 24 10.6666C30.4534 10.6666 35.8267 15.2533 37.0667 21.3333H34.3067C33.4534 18.0533 31.1067 15.3733 28 14.12V14.6666C28 16.1333 26.8 17.3333 25.3334 17.3333H22.6667V20C22.6667 20.7333 22.0667 21.3333 21.3334 21.3333H18.6667V24H21.3334V28H20L13.6134 21.6133C13.44 22.3866 13.3334 23.1733 13.3334 24C13.3334 29.88 18.12 34.6666 24 34.6666Z" fill="#2E6EDF"/>
</svg>
