<?xml version="1.0" encoding="utf-8"?>
<!-- Generator: Adobe Illustrator 26.0.2, SVG Export Plug-In . SVG Version: 6.00 Build 0)  -->
<svg version="1.1" id="Layer_1" xmlns="http://www.w3.org/2000/svg" xmlns:xlink="http://www.w3.org/1999/xlink" x="0px" y="0px"
	 viewBox="0 0 913 389.4" style="enable-background:new 0 0 913 389.4;" xml:space="preserve">
<style type="text/css">
	.st0{fill:url(#SVGID_1_);}
	.st1{fill:#F2EDF5;}
	.st2{opacity:0.4;}
	.st3{fill:url(#SVGID_00000112593437121808268400000013522358568344627390_);}
	.st4{fill:url(#SVGID_00000150093027178152108920000012483824079710192780_);}
	.st5{fill:url(#SVGID_00000074415624241690915170000008743980038721080217_);}
	.st6{fill:url(#SVGID_00000157279729244842283460000003294451431336981423_);}
	.st7{fill:url(#SVGID_00000124849327564623715920000015809999111749335231_);}
	.st8{fill:url(#SVGID_00000080902284972674457790000010445412799446790289_);}
	.st9{fill:url(#SVGID_00000085247171144123624250000004848063341060866436_);}
	.st10{fill:url(#SVGID_00000118380463564454977260000009397145061432386952_);}
	.st11{fill:url(#SVGID_00000068658350432292634970000010035108662806878849_);}
	.st12{fill:#FF1250;}
	.st13{fill:#FF8538;}
	.st14{fill:#1E1E1E;}
	.st15{fill:url(#SVGID_00000033327126186248365390000014603831698920283290_);}
	.st16{fill:#FFDEE7;}
	.st17{clip-path:url(#SVGID_00000082326448213822594320000017761074090561101493_);}
	.st18{fill:#DE1250;}
	.st19{fill:url(#SVGID_00000047036774834214333900000014269727169556242570_);}
	.st20{fill:url(#SVGID_00000064324391588665424200000008520661425897736382_);}
	.st21{fill:url(#SVGID_00000044175104217919601490000011080743180043210638_);}
	.st22{opacity:0.15;fill:#1E1E1E;enable-background:new    ;}
	.st23{opacity:0.15;}
	.st24{fill:#BA3DFE;}
	.st25{fill:none;}
	.st26{clip-path:url(#SVGID_00000018233911176525565020000018339962465522412971_);}
	.st27{fill:url(#SVGID_00000053506795372606450450000003753248326260453788_);}
	.st28{opacity:0.5;fill:url(#SVGID_00000082336390344142519090000011201411364951121339_);enable-background:new    ;}
	.st29{opacity:0.5;fill:url(#SVGID_00000142140812432547615120000000319536026413309858_);enable-background:new    ;}
	.st30{fill:#F5F5F5;}
</style>
<radialGradient id="SVGID_1_" cx="471.6599" cy="110.8772" r="317.6043" gradientTransform="matrix(1.1606 0 0 0.2359 -94.8837 84.7224)" gradientUnits="userSpaceOnUse">
	<stop  offset="0" style="stop-color:#DEB9F6"/>
	<stop  offset="1" style="stop-color:#FFFFFF"/>
</radialGradient>
<rect x="74.5" y="109.7" class="st0" width="756" height="92.8"/>
<path class="st1" d="M532.9,76.6H663c2.7,0,5.6-2.9-9.5-2.9c0,0,6.6-15.1-32.5-8.7c0,0,10.2-16.9-20.5-24.2s-46.7,18.4-46.7,18.4
	s-11.8-11.3-29.7-3.5c-14.4,6.3-11.4,13.9-11.4,13.9s-5.4-1-5.7,2.7c-9.7,0-12.5,4.3,0,4.3H532.9z"/>
<path class="st1" d="M180.4,92.7h324.8c6.8,0,14-7.3-23.8-7.3c0,0,16.4-37.8-81.1-21.6c0,0,25.6-42.2-51.2-60.5
	S232.6,49.2,232.6,49.2s-29.4-28.3-74.2-8.7C122.5,56.2,130,75.2,130,75.2s-13.4-2.6-14.3,6.8c-24.3,0-31.3,10.7,0,10.7L180.4,92.7z
	"/>
<g class="st2">
	
		<linearGradient id="SVGID_00000085943638698347627430000001685142128489510567_" gradientUnits="userSpaceOnUse" x1="289.5339" y1="5.08" x2="289.5339" y2="172.95" gradientTransform="matrix(1 0 0 -1 0 392)">
		<stop  offset="0" style="stop-color:#F7DFD0"/>
		<stop  offset="1" style="stop-color:#BDAC9F"/>
	</linearGradient>
	<path style="fill:url(#SVGID_00000085943638698347627430000001685142128489510567_);" d="M115.8,330.4c-3.1,0.9-5.1,4.4-0.7,5.3
		c1.5,0.3,3.2,0.1,4.5,1c0.4,0.2,0.6,0.6,0.6,1c0,0.4-0.4,0.7-0.7,1.1c-1.6,1.9-0.1,5.1,1.9,6.1c2.7,1.3,7.7,0.6,10.7,0.7
		c3.6,0.1,7.1-0.1,10.7-0.7c4-0.6,8-0.1,12,0c5.1,0.1,10.7-0.8,13.9-4.6c0.6-0.8,1.2-1.5,1.8-2.2c2.5-2.3,6.6-2.2,9.7-3
		c3.8-1,7.8-1.1,11.5-2.7c0.8-0.3,1.6-0.7,2.3-1.2c5.7-4.1,2.8-12.7,11-14.1c5.2-0.9,10.5-0.5,15.7-0.7c1.7,0.1,3.3-0.3,4.7-1.2
		c1.4-1.1,1.9-2.9,2.9-4.4c2.5-4.1,10.6-4.6,14.7-5.2c8.6-1.2,17.3-2,26-2.3c4.4-0.2,8.7-0.2,13.1-0.2c2.2,0,4.4-0.1,6.5,0
		c2.2,0.2,4.4,0.2,6.6-0.1c0.9,0,1.7-0.4,2.3-1c1.8-2-3.7-3.6-0.6-4.7c0.9-0.4,1.8-0.7,2.8-0.9l26-4.6c8-1.4,15.8-2.8,23.9-2.7h1.7
		c4.9-0.1,9.8-0.5,14.6-1.2c0.9-0.1,1.8-0.3,2.7-0.6c0.9-0.4,1.4-1.2,1.5-2.1c0-0.4,0-0.9,0-1.3c0.3-0.7,0.9-1.2,1.6-1.2
		c4.9-0.8,10-1.2,14.9-2.4c7.1-1.8,14.3-3,21.5-3.6c8.7-0.7,17.5-0.8,26.2-2.3c0.9,0,1.8-0.4,2.3-1.1c0.5-0.8-0.1-2.1-1-1.8
		c1.7-2.1,30.8-4.9,30.8-6.3v-6.5l-5.6,1c-11.8,2.2-23.6,4.3-35.5,6.3c-1.1,0.1-2.2,0.5-3.1,1.2c-0.4,0.4-0.7,1-1.1,1.4
		c-0.8,0.5-1.7,0.8-2.6,0.8c-4.6,0.3-9.3,0.5-13.9,0.8c-2.9,0.2-5.8,0.7-8.6,1.4c-2.5,0.5-4.9,0.6-7.4,1c-5.8,0.9-11.5,1.9-17.2,3
		c-3.3,0.7-6.5,1.3-9.9,1.8c-1.8,0.3-3.7,0.6-5.5,1c-1.4,0.2-2.8,0.6-4.2,1.1c-1,0.3-1.7,1.1-2,2.1c0,0.3-0.1,0.7-0.3,1
		c-0.3,0.4-0.8,0.6-1.3,0.6c-3.4,0.5-6.7,0.3-10.1,0.6s-6.8,0.7-10.2,1.1c-5.8,0.7-11.6,1.8-17.4,2.8c-4.5,0.8-9,1.7-13.4,2.5
		c-4.8,0.8-9.6,1.3-14.4,2.6c-0.7,0.1-1.3,0.5-1.7,1.1c-0.2,0.4-0.1,0.9-0.3,1.3c-0.4,1-1.7,1.2-2.7,1.2c-5,0.1-10.1-0.1-15.1,0
		c-9.2,0.3-18.4,2-27.5,3.6c-4,0.7-8,1.3-12,2.1c-2.6,0.5-5.4,1.2-6.7,3.4c-0.2,0.5-0.5,1-0.8,1.4c-1.6,2-6.3,1.7-8.6,1.6
		c-3.4-0.1-6.9-0.5-10.3,0.3s-7,0.9-10.3,1.9l-8.6,2.5L140,324.1l-17,5C120.5,329.8,118.1,329.8,115.8,330.4z"/>
	
		<linearGradient id="SVGID_00000024687811569287633990000005290780077336436891_" gradientUnits="userSpaceOnUse" x1="191.5784" y1="5.08" x2="191.5784" y2="172.95" gradientTransform="matrix(1 0 0 -1 0 392)">
		<stop  offset="0" style="stop-color:#F7DFD0"/>
		<stop  offset="1" style="stop-color:#BDAC9F"/>
	</linearGradient>
	<path style="fill:url(#SVGID_00000024687811569287633990000005290780077336436891_);" d="M35.7,295.7c-2.8,0.8-4.5,4-0.5,4.8
		c1.4,0.3,2.9,0.1,4,0.9c0.3,0.2,0.5,0.5,0.6,0.9c0,0.4-0.3,0.7-0.6,1c-1.4,1.7,0,4.6,1.8,5.5c2.4,1.2,7,0.5,9.6,0.5
		c3.2,0,6.4-0.2,9.6-0.7c3.6-0.6,7.2-0.1,10.8-0.1c4.6,0,9.6-0.8,12.5-4.3c0.5-0.7,1-1.4,1.6-2c2.2-2.1,5.9-2,8.7-2.8
		c3.4-1,7-1.1,10.3-2.5c0.7-0.3,1.4-0.7,2.1-1.1c5.1-3.8,2.3-11.5,9.7-12.8c4.7-0.9,9.4-0.6,14.1-0.8c1.5,0.1,3-0.3,4.2-1.1
		c1.2-1,1.7-2.6,2.5-3.9c2.2-3.7,9.5-4.2,13.2-4.8c7.7-1.2,15.5-2,23.3-2.3c3.9-0.2,7.8-0.3,11.7-0.4c1.9,0,3.9-0.2,5.9-0.1
		c2,0.2,3.9,0.1,5.9-0.1c0.7-0.1,1.5-0.4,2-0.9c1.6-1.8-3.4-3.2-0.6-4.2c0.8-0.4,1.6-0.6,2.5-0.8l23.4-4.4
		c7.2-1.4,14.1-2.7,21.4-2.7h1.6c4.4-0.1,8.8-0.6,13.1-1.2c0.8-0.1,1.6-0.3,2.4-0.6c0.8-0.4,1.3-1.1,1.4-1.9c0-0.4,0-0.8,0-1.1
		c0.2-0.6,0.8-1.1,1.5-1.1c4.4-0.8,9-1.2,13.3-2.4c6.3-1.7,12.8-2.8,19.3-3.5c7.9-0.7,15.8-0.9,23.5-2.3c0.8,0,1.6-0.4,2.1-1
		c0.4-0.7-0.1-1.9-0.9-1.6c1.5-1.9,27.6-4.7,27.6-6l-0.1-5.9l-5,1c-10.6,2.1-21.2,4.1-31.9,6c-1,0.1-2,0.5-2.8,1.1
		c-0.4,0.4-0.6,0.9-1,1.2c-0.7,0.5-1.5,0.7-2.4,0.7c-4.1,0.3-8.3,0.6-12.5,0.9c-2.6,0.2-5.2,0.7-7.7,1.4c-2.2,0.5-4.4,0.6-6.6,1
		c-5.2,0.8-10.3,1.8-15.5,2.9c-3,0.6-5.9,1.2-8.9,1.7c-1.6,0.3-3.3,0.5-4.9,0.9c-1.3,0.2-2.5,0.6-3.8,1c-0.8,0.3-1.5,1-1.8,1.9
		c0,0.3-0.1,0.6-0.2,0.9c-0.3,0.3-0.7,0.5-1.2,0.6c-3,0.5-6,0.4-9,0.6s-6.1,0.7-9.1,1.1c-5.2,0.6-10.4,1.7-15.6,2.7
		c-4,0.8-8,1.6-12,2.4c-4.3,0.8-8.6,1.2-12.9,2.5c-0.6,0.1-1.2,0.5-1.5,1c-0.2,0.4-0.1,0.8-0.2,1.1c-0.3,0.9-1.5,1.1-2.4,1.1
		c-4.5,0.1-9,0-13.6,0.2c-8.3,0.4-16.5,2-24.7,3.5c-3.6,0.7-7.1,1.3-10.7,2c-2.3,0.5-4.8,1.1-6,3.1c-0.2,0.4-0.5,0.9-0.7,1.3
		c-1.5,1.9-5.6,1.6-7.7,1.5c-3.1,0-6.2-0.4-9.2,0.4s-6.3,0.9-9.3,1.8l-7.7,2.4l-34.4,10.5l-15.3,4.7C40,295.1,37.8,295.1,35.7,295.7
		z"/>
	
		<linearGradient id="SVGID_00000036955764082821261800000004194653199086952868_" gradientUnits="userSpaceOnUse" x1="126.8738" y1="5.08" x2="126.8738" y2="172.95" gradientTransform="matrix(1 0 0 -1 0 392)">
		<stop  offset="0" style="stop-color:#F7DFD0"/>
		<stop  offset="1" style="stop-color:#BDAC9F"/>
	</linearGradient>
	<path style="fill:url(#SVGID_00000036955764082821261800000004194653199086952868_);" d="M3.4,256.8c-2.2,0.6-3.6,3-0.4,3.6
		c1.1,0.2,2.3,0.1,3.2,0.7c0.3,0.1,0.4,0.4,0.4,0.7c0,0.3-0.3,0.5-0.5,0.7c-1.1,1.3,0,3.5,1.4,4.2c1.9,0.9,5.5,0.4,7.6,0.4
		c2.5,0,5.1-0.1,7.6-0.5c2.8-0.5,5.7-0.1,8.6-0.1c3.6,0,7.6-0.6,9.9-3.3c0.4-0.5,0.8-1,1.3-1.5c1.8-1.6,4.7-1.5,6.9-2.2
		c2.7-0.8,5.5-0.8,8.2-1.9c0.6-0.2,1.1-0.5,1.6-0.9c4-2.9,1.8-8.8,7.7-9.8c3.7-0.6,7.5-0.4,11.2-0.6c1.2,0.1,2.3-0.3,3.3-0.9
		c1-0.7,1.4-2,2-3c1.7-2.8,7.5-3.2,10.4-3.7c6.1-0.9,12.3-1.5,18.5-1.8c3.1-0.1,6.2-0.2,9.3-0.3c1.5,0,3.1-0.1,4.7,0
		c1.6,0.1,3.1,0.1,4.7-0.1c0.6,0,1.2-0.3,1.6-0.7c1.3-1.4-2.7-2.5-0.5-3.2c0.6-0.3,1.3-0.5,2-0.6l18.5-3.4c5.7-1,11.2-2.1,17-2.1
		h1.2c3.5-0.1,6.9-0.4,10.4-0.9c0.7,0,1.3-0.2,1.9-0.5c0.6-0.3,1-0.8,1.1-1.5c0-0.3,0-0.6,0-0.9c0.2-0.5,0.6-0.8,1.1-0.9
		c3.5-0.6,7.1-0.9,10.6-1.8c5-1.3,10.1-2.2,15.3-2.7c6.2-0.5,12.5-0.7,18.6-1.8c0.6,0,1.2-0.3,1.6-0.8c0.3-0.5-0.1-1.4-0.7-1.2
		c1.2-1.4,21.9-3.6,21.8-4.6l-0.1-4.5l-4,0.8c-8.4,1.6-16.8,3.1-25.2,4.6c-0.8,0.1-1.6,0.4-2.2,0.9c-0.3,0.3-0.5,0.7-0.8,0.9
		c-0.5,0.4-1.2,0.6-1.9,0.5c-3.3,0.3-6.6,0.4-9.9,0.7c-2,0.2-4.1,0.5-6.1,1c-1.8,0.4-3.4,0.5-5.2,0.7c-4.1,0.6-8.2,1.4-12.2,2.2
		c-2.4,0.5-4.6,0.9-7,1.3c-1.3,0.2-2.6,0.4-3.9,0.7c-1,0.2-2,0.4-3,0.8c-0.7,0.2-1.2,0.8-1.4,1.4c0,0.2-0.1,0.5-0.2,0.7
		c-0.3,0.3-0.6,0.4-1,0.4c-2.4,0.4-4.8,0.3-7.1,0.5s-4.8,0.5-7.2,0.8c-4.1,0.5-8.2,1.3-12.3,2.1c-3.2,0.6-6.4,1.2-9.5,1.8
		c-3.4,0.6-6.8,1-10.2,1.9c-0.5,0.1-0.9,0.3-1.2,0.7c-0.1,0.3-0.1,0.6-0.2,0.9c-0.3,0.7-1.2,0.8-1.9,0.8c-3.6,0.1-7.2,0-10.7,0.2
		c-6.6,0.4-13.1,1.3-19.5,2.7c-2.8,0.5-5.7,1-8.5,1.5c-1.8,0.4-3.8,0.8-4.8,2.4c-0.2,0.3-0.4,0.7-0.6,1c-1.2,1.4-4.4,1.2-6.1,1.2
		c-2.4-0.2-4.9-0.1-7.3,0.3c-2.4,0.6-5,0.7-7.3,1.4l-6.1,1.8l-27.2,8l-12.1,3.5C6.8,256.3,5.1,256.3,3.4,256.8z"/>
	
		<linearGradient id="SVGID_00000057119602308621689020000006571250187397022354_" gradientUnits="userSpaceOnUse" x1="683.2137" y1="5.08" x2="683.2137" y2="172.95" gradientTransform="matrix(1 0 0 -1 0 392)">
		<stop  offset="0" style="stop-color:#F7DFD0"/>
		<stop  offset="1" style="stop-color:#FAC09C"/>
	</linearGradient>
	<path style="fill:url(#SVGID_00000057119602308621689020000006571250187397022354_);" d="M646.8,380.6c-0.5,0.2-1.1,0.3-1.6,0.5
		c-1.3,0.4-2.4,1.2-3.3,2.2c-0.9,1.1-0.9,2.6-0.1,3.7c1.2,1.4,3.3,1.1,4.8,1.2c3.1,0.3,6.2,0.3,9.3,0.4c3.3,0.1,6.7,0.1,10,0.2
		c3.7,0.1,7.5,0.4,11.2,0.3c2.9,0,5.8,0.1,8.6,0.2c0.5,0.1,1.1,0,1.6-0.2c3.1-1.3-1.8-2.9-2.7-3.1c-0.4,0-0.8-0.1-1.2-0.3
		c-0.4-0.1-0.7-0.5-0.8-0.9c-0.3-1.7,11.7-1.3,13.2-1.4c5.4-0.4,10.8-0.4,16.2,0c3.1,0.4,6.2,0.5,9.3,0.6c1,0.1,1.9-0.2,2.7-0.6
		c1.1-0.7,1.4-1.7,0.1-2.5c-1.4-0.7-2.9-1-4.5-0.9c-7-0.3-14-0.1-21.1-0.2l-30.7-0.3C661,379.5,653.7,378.5,646.8,380.6z"/>
	
		<linearGradient id="SVGID_00000156588597710868403370000017897624455589738667_" gradientUnits="userSpaceOnUse" x1="737.3142" y1="5.08" x2="737.3142" y2="172.95" gradientTransform="matrix(1 0 0 -1 0 392)">
		<stop  offset="0" style="stop-color:#F7DFD0"/>
		<stop  offset="1" style="stop-color:#FAC09C"/>
	</linearGradient>
	<path style="fill:url(#SVGID_00000156588597710868403370000017897624455589738667_);" d="M729.3,381.4c-0.2,0.1-0.3,0.1-0.5,0.2
		c-0.2,0.1-0.4,0.2-0.5,0.4c-0.1,0.2,0.1,0.5,0.4,0.7c0.3,0.2,0.7,0.3,1,0.3c4.1,0.6,8.2,0.7,12.3,0.4c1.2,0,4.6-0.1,4.3-1.4
		c-0.1-0.5-0.8-0.8-1.5-0.8c-3-0.3-6.1-0.3-9.2-0.1c-1.1,0.1-2.2,0.2-3.4,0.1C731.3,381,730.3,381.1,729.3,381.4z"/>
	
		<linearGradient id="SVGID_00000077290741920125785170000008894717674996395703_" gradientUnits="userSpaceOnUse" x1="772.0192" y1="5.08" x2="772.0192" y2="172.95" gradientTransform="matrix(1 0 0 -1 0 392)">
		<stop  offset="0" style="stop-color:#F7DFD0"/>
		<stop  offset="1" style="stop-color:#FAC09C"/>
	</linearGradient>
	<path style="fill:url(#SVGID_00000077290741920125785170000008894717674996395703_);" d="M756.2,360.9c-1.5-0.1-3,0.1-4.4,0.6
		c-0.8,0.3-1.6,0.8-1.5,1.6s1.2,1.2,2.1,1.3l10.6,1c0.8,0,1.6,0.2,2.4,0.5c0.6,0.3,1.1,0.7,1.6,1.1c1.9,1.4,4.4,1.7,6.8,1.9
		c3.3,0.3,6.6,0.3,9.8,0c2.7-0.2,5,0.4,7.6-1c1-0.5,1.7-1.2,2.2-2.2c0.8-1.9-0.9-3.2-2.5-3.7c-1.1-0.2-2.2-0.3-3.3-0.2
		c-6.4,0.1-12.8-0.4-19.3-0.8c-2.4-0.1-4.8-0.2-7.2-0.1C759.6,361.1,757.9,360.9,756.2,360.9z"/>
	
		<linearGradient id="SVGID_00000007403794594548475500000001206781417898400436_" gradientUnits="userSpaceOnUse" x1="753.8585" y1="5.08" x2="753.8585" y2="172.95" gradientTransform="matrix(1 0 0 -1 0 392)">
		<stop  offset="0" style="stop-color:#F7DFD0"/>
		<stop  offset="1" style="stop-color:#FAC09C"/>
	</linearGradient>
	<path style="fill:url(#SVGID_00000007403794594548475500000001206781417898400436_);" d="M714.3,325.1c1,0,2,0,3.1,0
		s2.5,0.1,3.1,1.1c0.2,0.3,0.2,0.6,0.1,0.9c-0.1,0.1-0.2,0.2-0.3,0.3c-0.8,0.3-1.6,0.5-2.4,0.6c-0.8,0.2-1.7,0.8-1.5,1.7
		c0.1,0.5,0.4,0.8,0.8,1c0.8,0.4,1.7,0.7,2.6,0.7c4,0.3,7.8,0.6,11.8,0.8c1.1,0,2.5,0.5,2.4,1.5c-0.1,0.8-1,1.1-1.8,1.3
		c-8.1,1.8-16.3,3.5-24.4,5.3c-4.3,0.8-8.4,1.9-12.5,3.5c-0.6,0.2-1,0.5-1.4,1c-0.8,1.3,0.5,2.8,1.3,4.1c0.9,1.5,1.1,3.8-0.6,4.8
		c-0.7,0.3-1.4,0.6-2.1,0.7c-0.9,0.2-2,0.7-2.1,1.6c0,0.8,0.7,1.4,1.4,1.7c0.8,0.2,1.4,0.7,1.9,1.3c0.4,0.9,0.2,2-0.3,2.8
		c-0.3,0.5-0.5,1.1-0.5,1.8c0.3,0.9,1,1.5,1.9,1.6c0.9,0.1,1.7,0.2,2.6,0.4c0.9,0.2,1.5,1,1.4,1.9c-0.2,0.6-0.7,1-1.2,1.2
		c-0.6,0.1-1.2,0.1-1.8,0c-0.3,0-0.6,0-0.9-0.1c-9.5-0.9-19.1-1.3-28.7-1.6c-8-0.2-16-0.5-24-0.4c-2-0.1-4.1,0.2-6,0.9
		c-1,0.4-1.7,1.1-2.1,2.1c-0.2,0.9,0.1,1.9,0.8,2.6c1.1,1.2,2.6,1.6,4.1,2.1c1.6,0.5,3.3,0.8,5,0.9c7.2,0.6,14.5,0.6,21.8,0.6
		c6.9,0,13.8,0.3,20.8,0.6c12.6,0.5,25.3,1.6,37.9,0.5c3.3-0.3,3.5-4.2,1.3-6c-1.5-1.1-3.3-1.6-5.2-1.5c-1.5,0-3.1,0-4.7,0.1
		c-0.6,0-5.9,0.6-4.3-1.4c0.2-0.3,0.6-0.5,0.8-0.9c0.5-0.9,0.3-2.1-0.5-2.8c-0.7-0.7-1.7-1.2-2.4-2c-0.8-0.7-1-1.9-0.4-2.8
		c0.2-0.2,0.4-0.4,0.6-0.6c0.3-0.7,0-1.5-0.6-1.9c-0.6-0.3-1.3-0.6-2-0.9c-0.7-0.3-1.2-0.9-1.2-1.6l3.7-1.5c0.4-0.1,0.7-0.3,0.9-0.7
		c0.1-0.3,0.1-0.6,0.1-0.9c0.2-0.7,1.1-0.9,1.8-1c5.8-0.7,11.5-1,17.3-2c5.1-0.9,10-2.1,15.3-2.2c5.8-0.1,11.6,0.3,17.3,1.3
		c0.4,0,0.8,0.2,1.2,0.4c0.3,0.2,0.5,0.6,0.5,1c-0.1,0.3-0.4,0.6-0.8,0.7c-1.4,0.5-3.6,0.2-5.1,0.2c-2-0.1-4,0-5.9,0.1
		c-0.4,0-0.7,0.1-1,0.4c-0.4,0.6-0.3,1.4,0.2,1.8c1.4,1.2,3.7,1.2,5.3,1.9s0.4,3.3,2.4,3.8c1.7,0.4,4,0.2,5.7,0.2l6.1,0.3
		c6.2,0.3,12.6,1.1,18.8,0.7l2.1-0.1c0.6,0,1.2-0.1,1.7-0.4c0.7-0.6,0.9-1.7,0.5-2.5c-0.8-1.1-1.9-1.9-3.3-2.2
		c-0.6-0.1-1.2-0.3-1.8-0.5c-1.2-0.5-2.1-2.2-1.2-3.4c0.5-0.6,1.3-0.9,2.1-1c2.5-0.4,5-0.3,7.4-1.2c0.1,0,0.3-0.1,0.4-0.2
		c0.2-0.3-0.2-0.7-0.6-0.9c-3-1.2-6.3-1.3-9.4-1.6c-1.6-0.1-3.1-0.4-4.6-0.9c-1.1-0.4-3.3-1-3.7-2.1c-0.2-0.6-0.2-1.3,0.2-1.9
		c0.3-0.5,0.8-1,1.4-1.3c1.6-0.9,3.5-1.4,5.4-1.3c2-0.1,3.9-0.3,5.8-0.7c5.3-0.7,10.1,0.1,15.5,0.2c6.5,0.1,12.9,0.4,19.4,0.4
		c1.7-0.1,3.5,0.1,5.2,0.5c0.5,0.2,1.1,0.5,1,1s-0.6,0.7-1.1,0.8c-1.9,0.4-4,0.3-5.9,0.9c-0.6,0.2-1.2,0.5-1.3,1.1
		c0,0.5,0.3,0.9,0.7,1.1c0.4,0.2,0.9,0.2,1.3,0.2c3,0.1,6-0.2,9-0.2c1.9,0,3.7,0,5.6-0.1s3.5,0.2,5.3,0.2s4.4-0.4,5.9,0.8
		c0.8,0.7,1.4,1.7,2.3,2.3c1,0.5,2.1,0.7,3.2,0.6h10.7c1,0.1,2-0.1,2.9-0.3c0.9-0.3,1.7-1,1.9-2c0.1-0.4,0.1-0.8,0-1.2
		c-0.6-1.9-2-3.4-3.8-4c-2.9-1.2-6.2-0.9-9.3-1.2c-1.3-0.2-2.6-0.4-3.9-0.5c-1.5,0-3.1,0.1-4.6,0c-0.8,0-1.7-0.1-2.5-0.4
		c-1.9-1.2,2.3-1.2,2.8-1.2c2-0.1,4-0.4,6-0.8c0.5-0.1,1-0.2,1.4-0.5c0.4-0.3,0.7-0.7,0.8-1.2c0-0.8-0.7-1.3-1.4-1.6
		c-2.4-1.2-5.2-1.3-7.8-1.4c-2.5-0.1-5.1-0.4-7.6-0.8c-3.2-0.5-6.5-0.8-9.8-1.2c-0.5-0.1-1-0.1-1.5-0.3c-3.1-0.7-6-2.2-9.1-3.2
		c-1.2-0.6-2.5-1-3.8-1.4c-1.7-0.4-3.4-0.7-5.2-0.9c-6.9-0.8-13.8-1.2-20.7-1.1l-19-0.2l-21.8-0.3l-16.7-0.2
		c-10.3-0.1-20.6,0.4-30.9-0.4c-0.9-0.1-1.7-0.1-2.5,0.2c-0.8,0.3-1.3,1.2-1.1,2.1c0.1,0.3,0.4,0.6,0.7,0.8c1,0.6,2.3,1,3.5,1
		C708.6,324.6,711.4,325,714.3,325.1z"/>
	
		<linearGradient id="SVGID_00000054965020477858807350000012130271680049075365_" gradientUnits="userSpaceOnUse" x1="824.8876" y1="95.7934" x2="240.5976" y2="180.0334" gradientTransform="matrix(1 0 0 -1 0 392)">
		<stop  offset="0" style="stop-color:#F99FB1"/>
		<stop  offset="1" style="stop-color:#DCABF9"/>
	</linearGradient>
	<path style="fill:url(#SVGID_00000054965020477858807350000012130271680049075365_);" d="M904.6,279.8c-0.9-0.2-1.7-0.3-2.6-0.4
		c-3.5-0.4-6.9-1.1-10.4-1.2l-9.3-0.3c-1.2,0-2.7-0.2-3.1-1.4c-0.3-1.1,0.4-2.2,1.4-2.5c1-0.3,2.1-0.4,3.2-0.2
		c1.5,0.1,7.1-0.1,5.8-3c-0.4-0.6-0.9-1.1-1.6-1.4c-8.1-4.1-16.9-6.8-25.9-8.1l-14.3-1.7l-19.4-2.4l-24-2.9l-28-3.4l-31.5-3.9
		l-34.5-4.2l-36.8-4.5l-38.6-4.7l-39.9-4.9l-40.6-5l-40.8-5l-40.4-4.9l-39.4-4.8l-37.9-4.6l-35.8-4.4l-33.2-4.1l-30-3.7l-26.4-3.2
		l-22-2.7l-17.2-2.1l-11.8-1.4l-5.8-0.7l-0.5-0.1c0.3,0,1.3,5.6,1.4,6c0.9,3.6,1,8.4,5.2,9.5c1.3,0.4,2.6,0.5,3.9,0.8
		c0.3,0,0.5,0.2,0.7,0.3c0.4,0.5,0.3,1.3-0.2,1.7c0,0,0,0,0,0c-0.5,0.4-1.2,0.6-1.8,0.6c-1.9,0.3-3.9,0.8-5.7,1.6
		c-0.9,0.4-2,1.1-1.9,2.1s1.4,1.4,2.4,1.5l5.4,0.7c0.5,0,1,0.2,1.4,0.5c1.4,1.1-1.1,1.7-1.4,2.6c-0.6,1.5,0.7,2.1,1.8,2.8
		c0.4,0.3,0.8,0.5,1.1,0.8c0.8,0.4,1.6,0.7,2.5,1c3.2,1,6.5,1.6,9.8,1.8c1.7,0.1,3.4,0.2,5.2,0.4c1.1,0.1,3.7-0.2,4.4,0.9l-2.4,1.5
		c-0.3,0.2-0.7,0.5-0.7,0.9s0.4,0.7,0.7,0.9c1.5,0.7,3,1.2,4.7,1.4c3.7,0.6,7.3,1,11,1.4c3.3,0.4,6.6,1.3,9.9,2
		c7.9,1.7,15.5,3.4,23.7,3.9c2,0.1,6.6-0.2,7.9,1.7c-3.3-0.1-6.5,0.5-9.5,1.6c-0.4,0.1-0.7,0.3-0.9,0.7c-0.3,0.8,0.8,1.2,1.6,1.3
		c5.2,0.5,10.5,1,15.7,1.3c2.7,0.2,5.3,0.4,8,0.5c2.3,0.1,5.1-0.2,7.3,0.6c9.3,2.9,19,4.8,28.7,5.6c2.9,0.3,5.8,0.4,8.8,0.4
		c2.4-0.2,4.7,0.1,7,0.7c0.3,0.1,0.7,0.3,0.8,0.7c0.1,0.6-0.6,0.9-1.2,1.2s-1.1,0.9-0.7,1.3c14.2,4,29.2,3,43.9,4.8
		c0.7,0.1,3.7,0.9,1.8,1.8c-2.3,1-4.6,1.8-7.1,2.2c-1.8,0.3-3.8,0.5-5.3,1.6c-0.3,0.2-0.5,0.4-0.5,0.8c0,0.3,0.2,0.5,0.4,0.7
		c1.1,0.7,2.4,1,3.6,0.9l27.6,0.9c2.2,0.1,4.5-0.2,6.6,0c1.6,0.1,3.2,0.9,4.8,1.2c4.5,0.8,8.9,1.7,13.4,2.5
		c18,3.3,36.5,4.4,54.7,6.8c0.5,0.4-0.3,1.1-0.9,1.2c-4,0.7-8.7-0.2-11.7,2.5c1.4,0.8,3,1.2,4.7,1.2l23.5,1.4
		c17.6,1,34.8,3.7,52.5,3.3c3.6-0.1,7,0.5,10.7,0.5c5.6,0,11.5-0.6,16.9,0.6c0.3,0,0.6,0.2,0.8,0.4c0.1,0.2,0.1,0.5,0,0.7
		c-0.2,0.5-0.6,0.8-1.1,0.9c-0.5,0.1-1,0.2-1.5,0.1c-5.8,0-11.6,0.7-17.4,0.8c-3.9,0.1-7.8-0.1-11.7,0.3c-0.9,0-1.7,0.3-2.4,0.9
		c-0.2,0.2-0.3,0.4-0.4,0.7c-0.4,2.3,12.3,1.9,14,1.9c5.8,0.1,11.5,0,17.2-0.4c9.4-0.6,18.8,0.5,28.1,1.5c3.5,0.4,7.1,1.2,10.6,1.2
		c7.2,0,14.4,1,21.6,1c18.6,0,37,0,55.5,1.9c0.6,0.1,1.2,0.2,1.4,0.8c0,0.3,0,0.6-0.2,0.8c-1.8,3.2-7.9,2-10.8,1.9
		c-4.7-0.1-9.4-0.2-14.1-0.6c-6-0.4-12.1-0.3-18.1,0.3c-5.4,0.5-11.2,0-16.7,0c-1.5-0.1-3,0.2-4.3,0.8c-0.4,0.2-0.7,0.6-1,1
		c-0.4,1,0.3,2.2,1.2,2.9c3,2.4,6.8,2.5,10.4,3c3.4,0.4,6.8,0.5,10.2,0.8c1.6,0.1,7.8-0.1,8.5,1.9c0.9,2.5-6.8,1.6-8,1.6
		c-3.5,0-7-0.1-10.5-0.1c-4.2,0-8.3-0.1-12.5-0.5c-1.1-0.1-2.4,0-2.8,1c-0.2,0.8,0.1,1.5,0.8,1.9c0.7,0.3,1.4,0.5,2.2,0.5
		c6.1,0.6,12.2,1,18.3,1.4c9.4,0.5,18.7,0.6,28.1,1.6c1,0,2,0.4,2.7,1c0.3,0.3,0.5,0.7,0.8,1c0.8,0.6,1.8,0.9,2.7,0.8
		c4.6,0.1,9.3-0.4,13.9,0.1c5.7,0.5,11.5-0.4,17.2-0.2c6.6,0.1,13.1,0.2,19.7,0.2c4.3,0,8.5-0.2,12.7,0c3.1,0.1,6.2,0.2,9.3,0.2
		c1.4,0,2.8-0.1,4.1-0.2s2.6,0.3,3.9-0.1c0.9-0.3,2-1.2,0.8-2c-0.4-0.2-0.8-0.4-1.3-0.5c-3.8-0.7-7.8-0.5-11.7-0.8
		c-1.2,0.1-2.3-0.1-3.4-0.6c-0.3-0.1-0.5-0.3-0.7-0.6c-0.3-0.5-0.3-1,0-1.5c0.3-0.4,0.7-0.8,1.3-0.9c0.5-0.1,1-0.2,1.6-0.3
		c1.8-0.2,3.7,0,5.5,0c4.1,0.1,8.3-0.1,12.4-0.5c1.2-0.1,3.7-0.4,3.8-2c0-0.6-0.3-1.2-0.9-1.5c-0.7-0.4-1.4-0.6-2.1-0.7
		c-2.7-0.5-5.4-0.6-8.1-0.6c-2.5,0-5.1-0.4-7.7-0.5c-4.1-0.1-8.4,0.4-12.3-1c-0.6-0.2-1.2-0.7-1.1-1.2c0.1-0.2,0.2-0.4,0.4-0.5
		c1.1-0.7,2.3-1,3.5-0.8c2.3,0,4.6,0,6.9,0.1c7.7,0.2,15.6-0.6,23.2,0.1c1.7,0.2,3.6,0,5.3,0h10.5c2.8,0,5.6-0.6,8.4-0.5
		c7.3,0.6,14.7,0.5,22.1-0.2c6.1-0.8,12.3-0.8,18.5-0.1c0.8,0.1,1.7,0.5,1.7,1.2s-1,0.9-1.7,1c-1.7,0.2-3.4,0.7-5,1.5
		c-0.8,0.4-1.8,1.3-1.3,2.2c0.3,0.6,1,0.7,1.7,0.7c5.1,0.3,10.2,0.4,15.3,0.2c8.2-0.4,16.3-0.8,24.5-1.1l5.9-0.3
		c1.2,0,2.4-0.2,3.6-0.5c1.2-0.3,2.2-1.2,2.7-2.3c0.4-1.2,0.3-2.4-0.3-3.5c-0.6-1-1.5-1.9-2.6-2.5c-4.2-2.5-9.6-1.8-14.3-2.9
		c-1-0.2-2.2-0.7-2.3-1.8c0-0.7,0.3-1.3,0.8-1.7c3-2.4,7.8-0.6,11.1-2.3c1.1-0.5,2.1-1.4,2.7-2.4c0.9-1.8,0.5-3.9-1-5.2
		C906.1,280.5,905.4,280,904.6,279.8z"/>
	
		<linearGradient id="SVGID_00000126299893700318442130000012437457927361309093_" gradientUnits="userSpaceOnUse" x1="749.8398" y1="5.08" x2="749.8398" y2="172.95" gradientTransform="matrix(1 0 0 -1 0 392)">
		<stop  offset="0" style="stop-color:#F7DFD0"/>
		<stop  offset="1" style="stop-color:#FAC09C"/>
	</linearGradient>
	<path style="fill:url(#SVGID_00000126299893700318442130000012437457927361309093_);" d="M754.8,357.4c0,1-1.8,1.1-2.5,1.1
		c-1.5,0-3.1-0.1-4.6,0c-0.8,0.1-2.8,0-2.8-1.2c0-0.3,0.3-0.7,0.6-0.8c0.6-0.3,1.2-0.5,1.8-0.5c2.2-0.2,4.3,0,6.4,0.5
		C754.2,356.7,754.8,356.9,754.8,357.4z"/>
</g>
<path class="st12" d="M680.2,125.4l-44.7-33.9c-0.1-0.1-0.3-0.2-0.4-0.3c-2.3-1.2-6.6,2.4-9.7,8.2s-3.8,11.4-1.5,12.6
	c0.2,0.1,0.4,0.2,0.7,0.2l54,16.4C679.8,128.2,680.5,126.8,680.2,125.4z"/>
<path class="st12" d="M656.4,123l0.2-1.6l4.7,1.6l-0.5,2.9l-1.3-0.4l-0.6-0.6C658.3,124.1,657.4,123.3,656.4,123z"/>
<path class="st13" d="M625.3,99.4c-3.1,5.8-3.7,11.4-1.4,12.7c1,0.4,2.1,0.3,3-0.3c1.4-0.9,2.7-2,3.8-3.3c1.2-1.4,2.2-2.9,3-4.6
	c3.1-5.8,3.7-11.4,1.4-12.7S628.4,93.6,625.3,99.4z"/>
<ellipse transform="matrix(0.4736 -0.8807 0.8807 0.4736 241.8386 607.8311)" class="st14" cx="629.4" cy="101.6" rx="10" ry="3.2"/>
<linearGradient id="SVGID_00000086663915170729210760000015048231198129130112_" gradientUnits="userSpaceOnUse" x1="850.1195" y1="137.4454" x2="235.8395" y2="201.1954" gradientTransform="matrix(1 0 0 -1 0 392)">
	<stop  offset="0" style="stop-color:#FF1D4B"/>
	<stop  offset="1" style="stop-color:#B93DFE"/>
</linearGradient>
<path style="fill:url(#SVGID_00000086663915170729210760000015048231198129130112_);" d="M874.2,251.5c-3.3,2-83.5,2.1-213.1-12.6
	c-124.4-14.1-265.3-34.4-350.5-48.3c-76.4-12.4-107.7-26.8-108.9-29.9c-2.8,3.3,10,19.1,11.8,21.2s15.1,8,26.9,12.6
	s53.3,8.8,100.4,20.4s197.4,34.9,269.3,41s110.2,10,138.7,13.3s75.1,1.3,91.4,0.9s34.3-1.7,34.3-1.7L874.2,251.5z"/>
<path class="st16" d="M655.4,195.4c-84.1-15.1-166.3-23.3-280.8-31s-167-5.8-172.2-4.1c-0.3,0.1-0.5,0.3-0.7,0.5
	c1.3,3.1,32.6,17.5,109,29.9c29.8,4.8,62.6,11,102.9,16.9c75,10.9,166.7,22.2,247.6,31.4c129.6,14.7,209.8,14.6,213.1,12.6
	C862.1,240.8,739.5,210.5,655.4,195.4z M842.2,250.6c-20.4-0.2-88.8-5.4-126.9-8.5S486.1,214,417,204.6s-156.2-25.9-178.5-31.6
	s-34.3-11.5-32.5-11.7c12.6-1.8,54.5-2.5,180.6,5.8s139.4,11.7,226.7,23.5c79.7,10.7,233.5,49.8,254.9,59.4
	C869.3,250.6,862.6,250.9,842.2,250.6L842.2,250.6z"/>
<path class="st12" d="M868.2,250c-21.3-9.6-175.2-48.7-254.9-59.4c-87.3-11.7-100.6-15.2-226.7-23.5s-168-7.6-180.6-5.8
	c-1.7,0.2,10.2,6,32.5,11.7s109.4,22.2,178.5,31.6s260.2,34.4,298.3,37.5s106.5,8.2,126.9,8.5S869.3,250.6,868.2,250z"/>
<g>
	<defs>
		<path id="SVGID_00000145037002308813633120000015936544070586938768_" d="M868.2,250c-21.3-9.6-175.2-48.7-254.9-59.4
			c-87.3-11.7-100.6-15.2-226.7-23.5s-168-7.6-180.6-5.8c-1.7,0.2,10.2,6,32.5,11.7s109.4,22.2,178.5,31.6s260.2,34.4,298.3,37.5
			s106.5,8.2,126.9,8.5S869.3,250.6,868.2,250z"/>
	</defs>
	<clipPath id="SVGID_00000167358002300411263100000017423188810283219341_">
		<use xlink:href="#SVGID_00000145037002308813633120000015936544070586938768_"  style="overflow:visible;"/>
	</clipPath>
	<g style="clip-path:url(#SVGID_00000167358002300411263100000017423188810283219341_);">
		<polygon class="st18" points="325.5,182.7 467.4,196.8 649.6,220.5 772.1,241.5 800.7,257.2 319.9,202.7 290.4,187.4 		"/>
		<polygon class="st14" points="467.4,177.7 467.4,196.8 390.9,219.4 381.7,219.6 375.8,203.9 		"/>
		
			<linearGradient id="SVGID_00000050648618945310404340000007931297472608979112_" gradientUnits="userSpaceOnUse" x1="387.9276" y1="189.6095" x2="390.5675" y2="226.5595" gradientTransform="matrix(1 0 0 -1 0 392)">
			<stop  offset="0" style="stop-color:#FF1D4B"/>
			<stop  offset="1" style="stop-color:#FFC600"/>
		</linearGradient>
		<path style="fill:url(#SVGID_00000050648618945310404340000007931297472608979112_);" d="M310.4,199l5-8.7l82.6-18
			c0,0,35.4,2.1,69.3,5.4l-83.2,24.1l14,18.7L310.4,199z"/>
		<polygon class="st14" points="325.5,166.6 325.5,182.7 262.7,198.3 248.5,183.2 		"/>
		
			<linearGradient id="SVGID_00000016066843337302479740000007323968006941165712_" gradientUnits="userSpaceOnUse" x1="270.6617" y1="197.9906" x2="273.3017" y2="234.9406" gradientTransform="matrix(1 0 0 -1 0 392)">
			<stop  offset="0" style="stop-color:#FF1D4B"/>
			<stop  offset="1" style="stop-color:#FFC600"/>
		</linearGradient>
		<path style="fill:url(#SVGID_00000016066843337302479740000007323968006941165712_);" d="M219.4,171.9l47.1-8.4
			c0,0,35.8,1.6,59,3.1l-77,16.6L219.4,171.9z"/>
		<polygon class="st14" points="548.5,226.4 649.6,200.9 649.6,220.5 600.3,234.7 		"/>
		
			<linearGradient id="SVGID_00000153700311746668400700000017147212664482523578_" gradientUnits="userSpaceOnUse" x1="547.4684" y1="178.2201" x2="550.1085" y2="215.1701" gradientTransform="matrix(1 0 0 -1 0 392)">
			<stop  offset="0" style="stop-color:#FF1D4B"/>
			<stop  offset="1" style="stop-color:#FFC600"/>
		</linearGradient>
		<path style="fill:url(#SVGID_00000153700311746668400700000017147212664482523578_);" d="M649.6,200.9c0,0-28.6-5.6-102.2-14.3
			l-101.1,26.3l102.2,13.5L649.6,200.9z"/>
		<polygon class="st22" points="467.4,177.7 485.3,199.1 451.7,209.3 433.5,206.9 		"/>
		<polygon class="st22" points="649.6,200.9 666.5,223.3 638,233.3 615.2,230.5 		"/>
	</g>
</g>
<path class="st14" d="M672.6,234.8c0,0-1.9-20.4,0-29.9s7.7-10.5,10.6-10.7s14.8,1.2,34.8,17.8l-29.1,18L672.6,234.8z"/>
<g class="st23">
	<path class="st14" d="M672.6,234.8l8.8-2.6l-9.4-7.8C672.2,230.3,672.6,234.8,672.6,234.8z"/>
</g>
<g>
	<path class="st24" d="M684.3,211.4c-0.2,0-0.3-0.1-0.4-0.2l-5.1-6.9c-0.2-0.2-0.1-0.5,0.1-0.7c0.2-0.2,0.5-0.1,0.7,0.1l5.1,6.9
		c0.2,0.2,0.1,0.5-0.1,0.7C684.6,211.3,684.5,211.4,684.3,211.4z"/>
</g>
<polygon class="st16" points="659.3,235.9 738.3,214.5 739.7,214.1 771.2,221.7 772.1,223.1 701.9,240.9 692.8,239.9 "/>
<path class="st22" d="M669.6,233.1c0,0,25.5,5.4,40.2,1.2s-21.2-6.3-21.2-6.3L669.6,233.1z"/>
<polygon class="st13" points="771.2,221.7 697.5,240.4 701.9,240.9 772.1,223.1 "/>
<polygon class="st14" points="772.1,223.1 772.1,241.5 758.5,245.6 722.3,242.7 706.4,241.3 701.9,240.9 "/>
<path class="st13" d="M814.2,248.4l-0.4,0.8c37,2.4,55.2,1.5,55.2,1.5v-1.1C858,251.1,814.2,248.4,814.2,248.4z"/>
<path class="st18" d="M840.7,239.9c0,0-0.8,0.2-2.1,0.5l-24.3,7.9l54.9,1.1C864,246.1,840.7,239.9,840.7,239.9z"/>
<path class="st18" d="M869.1,249.6l-54.9-1.1C814.2,248.4,858,251.1,869.1,249.6z"/>
<path class="st14" d="M849.3,235.1c-3.2,0-4.4,7.4-4.5,11.6c0,0.5,2,1,4.5,1s4.5-0.4,4.5-1C853.8,242.9,852.5,235.1,849.3,235.1z"/>
<polygon class="st12" points="518.5,214.6 518.5,218.1 524,218.8 523.9,212.9 "/>
<path class="st13" d="M126.3,307.7c15.7-6.6,43.9-12.6,54.7-9.1c-5.4-1.9-11.1-2.5-16.8-1.8c-16,2-43.6,8.1-48.5,18
	c-4.7,9.5-2.3,16.3-2.3,16.3h0.9C114,329.9,111.2,314,126.3,307.7z"/>
<path class="st12" d="M189.9,303.5c-2.7-2.1-5.7-3.8-9-4.8c-10.8-3.5-38.9,2.5-54.7,9.1c-15.1,6.3-12.3,22.2-12,23.5
	c3.5-0.2,16.5-0.8,20-1c4-0.2,18.9-5.8,25.9-6.8s27.5-7.6,29.4-9.5c1.2-1.3,1.9-2.9,2.2-4.6L189.9,303.5z"/>
<path class="st14" d="M567.1,193.8c-0.8-1.9-2.5-2.9-3.8-2.4l-373.4,112l-3.1,2.5l-54.4,17l55.2-14.7l4.1,1l374.1-111
	c0.1,0,0.2-0.1,0.4-0.1C567.4,197.6,567.9,195.7,567.1,193.8z"/>
<path class="st16" d="M512.5,206.7l4.5-1.3c4.5-1.3,6.8,5.4,2.1,6.8l-4.7,1.4c0,0,1.6,3.3,7.9,2s7.3-10.6,3.8-13.5s-8.6-2.4-11.1,0
	S512.5,206.7,512.5,206.7z"/>
<path class="st25" d="M189.9,303.4c0,0-9.7-8.5-25.7-6.6s-44.3,8.3-48.5,18s-2.3,16.3-2.3,16.3s16.8-0.9,20.8-1s18.9-5.8,25.9-6.8
	s27.5-7.7,29.4-9.5c1.2-1.3,1.9-2.9,2.2-4.6L189.9,303.4z"/>
<polygon class="st12" points="379.4,195.9 379.4,199.1 384.1,199.9 384,194.4 "/>
<path class="st13" d="M44.3,275.4c13.4-5.6,37.5-10.8,46.7-7.8c-4.6-1.6-9.5-2.1-14.3-1.5c-13.7,1.7-37.2,6.9-41.4,15.4
	c-4,8.1-2,14-2,14H34C33.8,294.3,31.5,280.8,44.3,275.4z"/>
<path class="st12" d="M98.7,271.8c-2.3-1.8-4.9-3.2-7.7-4.1c-9.2-3-33.3,2.1-46.7,7.8c-12.9,5.4-10.5,19-10.3,20.1
	c3-0.1,14.1-0.7,17-0.8c3.4-0.1,16.2-4.9,22.1-5.8s23.5-6.5,25.1-8.1c1-1.1,1.6-2.5,1.8-4L98.7,271.8z"/>
<path class="st14" d="M420.9,178.1c-0.7-1.6-2.1-2.5-3.3-2l-319,95.6l-2.7,2.1l-46.5,14.6l47.2-12.6l3.5,0.8l319.6-94.8
	c0.1,0,0.2,0,0.3-0.1C421.2,181.4,421.6,179.7,420.9,178.1z"/>
<path class="st16" d="M374.3,189.1l3.8-1.1c3.8-1.1,5.8,4.6,1.8,5.8l-4,1.2c0,0,1.4,2.8,6.7,1.7s6.2-9,3.3-11.5
	c-2.7-2.3-6.7-2.3-9.5,0C375.2,186.1,374.4,187.6,374.3,189.1z"/>
<polygon class="st12" points="272.6,178.3 272.6,180.6 276.2,181.1 276.2,177.1 "/>
<path class="st13" d="M9.1,240.8c10.6-4.4,29.5-8.5,36.7-6.1c-3.6-1.3-7.5-1.7-11.3-1.2C23.8,234.8,5.2,239,2,245.6
	c-3.2,6.4-1.5,11-1.5,11H1C0.8,255.7-1,245.1,9.1,240.8z"/>
<path class="st12" d="M51.8,238c-1.8-1.4-3.8-2.5-6-3.2c-7.2-2.4-26.2,1.6-36.7,6.1C-1,245.1,0.8,255.7,1,256.6
	c2.3-0.1,11.1-0.5,13.4-0.6c2.7-0.1,12.7-3.9,17.4-4.6s18.5-5.1,19.7-6.4c0.8-0.9,1.3-1.9,1.5-3.1L51.8,238z"/>
<path class="st14" d="M305.2,164.3c-0.5-1.2-1.7-1.9-2.6-1.6L51.8,238l-2.1,1.7l-36.6,11.4l37.1-9.9l2.7,0.6l251.3-74.6l0.2-0.1
	C305.4,166.9,305.7,165.6,305.2,164.3z"/>
<path class="st16" d="M268.5,173l3-0.9c3-0.9,4.6,3.6,1.4,4.6l-3.2,0.9c0,0,1.1,2.2,5.3,1.3s4.9-7,2.6-9c-2.2-1.8-5.3-1.8-7.5,0
	C269.2,170.7,268.6,171.8,268.5,173z"/>
<polygon class="st22" points="325.5,166.6 337.9,184 316.6,188.5 308.1,187 "/>
<g>
	<path class="st14" d="M697.6,190.1c-0.2-4.5-0.1-9.1,0.4-13.5l1,0.1c-0.5,4.4-0.6,8.9-0.3,13.4L697.6,190.1z"/>
</g>
<g>
	<defs>
		<path id="SVGID_00000022542568330753590230000013033276897160683931_" d="M710.3,207.4l-46.3-7.3l-35.7,1.4L417,204.6
			c51.6,7,169.2,22.5,242.3,31.3c0.2,0,2.3-0.7,2.5-0.7s0.9,1.1,1.1,1.1c24.1,2.9,42.9,5,52.3,5.8c38.1,3.1,106.5,8.2,126.9,8.5
			L710.3,207.4z"/>
	</defs>
	<clipPath id="SVGID_00000011010585423924025170000001095403514655800973_">
		<use xlink:href="#SVGID_00000022542568330753590230000013033276897160683931_"  style="overflow:visible;"/>
	</clipPath>
	<g style="clip-path:url(#SVGID_00000011010585423924025170000001095403514655800973_);">
		<path class="st14" d="M700.6,212c0,0-27.5-4.1-39.9-4.5c-7.2-0.2-11.7,0.6-14.1,3.4c-1.7,2-2.4,5-2.3,9.3
			c0.2,10.5,1.1,19.8,1.1,19.8l15,1.5c0,0,2-12.5,1.4-18.2c0,0,21.1,8.8,37.5,11s25.5-7.8,25.5-7.8l-5-9.4
			C719.8,217.2,707.6,209.8,700.6,212z"/>
		<g>
			<path class="st24" d="M644.3,220.7c-0.3,0-0.5-0.2-0.5-0.5c-0.1-4.6,0.7-7.6,2.4-9.7c0.9-1,2-1.8,3.2-2.3c0.3-0.1,0.5,0,0.7,0.3
				c0.1,0.3,0,0.5-0.3,0.7c-1.1,0.4-2,1.1-2.8,2c-1.6,1.8-2.3,4.7-2.2,9C644.8,220.5,644.6,220.7,644.3,220.7
				C644.3,220.7,644.3,220.7,644.3,220.7z"/>
		</g>
		<g>
			<path class="st14" d="M661.8,223.9c-0.1,0-0.1,0-0.2,0l-7.1-2.3c-0.3-0.1-0.4-0.4-0.3-0.6c0.1-0.3,0.4-0.4,0.6-0.3l7.1,2.3
				c0.3,0.1,0.4,0.4,0.3,0.6C662.3,223.7,662.1,223.9,661.8,223.9z"/>
		</g>
		<g>
			<path class="st24" d="M701.9,212.2C701.9,212.2,701.9,212.2,701.9,212.2c-0.2,0-16.4-2-29.2-3.3c-0.3,0-0.5-0.3-0.4-0.5
				c0-0.3,0.3-0.5,0.5-0.4c12.8,1.3,29,3.2,29.2,3.3c0.3,0,0.5,0.3,0.4,0.6C702.4,212,702.2,212.2,701.9,212.2z"/>
		</g>
		<g>
			<path class="st24" d="M680.8,230.6c-0.1,0-0.1,0-0.2,0l-8.9-2.9c-0.3-0.1-0.4-0.4-0.3-0.6c0.1-0.3,0.4-0.4,0.6-0.3l8.9,2.9
				c0.3,0.1,0.4,0.4,0.3,0.6C681.2,230.5,681,230.6,680.8,230.6z"/>
		</g>
		<g class="st23">
			<path class="st14" d="M661.9,223.5l-5.2-1.7l5,10.6C662,229.4,662,226.4,661.9,223.5z"/>
		</g>
	</g>
</g>
<path class="st13" d="M747.8,196.9l-0.4-0.1C747.5,196.8,747.7,196.9,747.8,196.9z"/>
<path class="st13" d="M808.8,167.2c-2.9,0.2-3.7,0.2-5.5,1.1s-15.4,7.6-21,10.2s-13.9,6.7-13.9,6.7c-3-0.4-10.2-2.4-17-5.6l-2.3-1.1
	c-1.3,0.8-2.6,3.5-3.3,7c-0.1,0.5-0.2,1.1-0.2,1.6c-0.2,1.4-0.2,2.8-0.2,4.3c0.9,0.2,1.9,0.5,2.8,0.7l2.8,0.7c4.7,1.1,8.5,1.9,9.5,2
	c2.2,0.3,9.1,1.4,11.8,0s34.2-20.9,38.3-23S811.7,167.1,808.8,167.2z"/>
<path class="st13" d="M807.5,173.6c0,0,11.5-1.4,12-1.5c0.5-0.1,0.8-0.5,0.9-0.9c0,0,2.1,0.1,2.1-1c0-0.6-1.3-0.9-1.3-0.9
	s0.1-0.8-1-1.2s-3.6-1.2-10-0.7c0,0,1.1-2.2,0.9-2.9s-1.2-0.4-2.2,0.3s-5.2,3.4-5.2,3.4"/>
<g>
	<path class="st14" d="M820.4,171.7c-0.3,0-0.5-0.2-0.5-0.5c0-0.1-0.4-0.3-1-0.3c-0.9,0-5.4,0.1-5.5,0.1c-0.3,0-0.5-0.2-0.5-0.5
		s0.2-0.5,0.5-0.5c0.2,0,4.6-0.1,5.5-0.1c1.1,0,2,0.6,2,1.3C820.9,171.5,820.6,171.7,820.4,171.7z M819.9,171.2
		C819.9,171.2,819.9,171.2,819.9,171.2L819.9,171.2z M819.9,171.2C819.9,171.2,819.9,171.2,819.9,171.2S819.9,171.2,819.9,171.2z"/>
</g>
<g>
	<path class="st14" d="M821.3,169.6C821.3,169.6,821.3,169.6,821.3,169.6c-2.5-0.4-4.9-0.6-7.3-0.6c0,0,0,0,0,0
		c-0.3,0-0.5-0.2-0.5-0.5c0-0.3,0.2-0.5,0.5-0.5c2.5,0,5,0.2,7.4,0.6c0.3,0,0.5,0.3,0.4,0.6C821.8,169.4,821.6,169.6,821.3,169.6z"
		/>
</g>
<path class="st18" d="M800.3,169.1c0.3-0.2,0.8-0.3,1.2-0.1c1.2,0.5,2.3,1.3,3.1,2.3c0.8,1,1.2,2.4,1,3.7c-0.1,0.4-0.3,0.7-0.6,0.9
	l-2.5,1.6l-4.3-7.1L800.3,169.1z"/>
<path class="st13" d="M679.1,168.4c-1-3.1-8.2-18.5-9.4-21.4s-5.5-13.9-5.5-13.9s0.5-3.2,0.8-4.8s-0.3-2.4-2.6-3s-3.5-1-3.5-1
	c0.4-1.2-2.6-2.4-3.6-2.9s-2-0.8-2.7,0s-0.1,2.2-0.1,2.2c-0.6,0-1.2,0.5-1.3,1.2c-0.4,1.2,1.3,2.3,1.3,2.3c-1.1,1.6,0.8,2.5,0.8,2.5
	s-0.2,0.5,0.3,2.1s4.1,3.7,4.1,3.7s3.9,15.3,5.5,22.7c1.5,6.1,3.5,12,5.9,17.8c0.3,0.4,2.4,1.7,6.2,3.5s10.2,4.1,10.5,4.2
	c-2.1-5-1.7-10.7,1.2-15.3l0,0C682.8,168.4,679.1,168.4,679.1,168.4z"/>
<path class="st18" d="M658.1,139c-0.1-0.4,0-0.8,0.2-1.2c0.8-1,1.9-1.8,3.2-2.2c1.2-0.5,2.6-0.4,3.8,0.1c0.3,0.2,0.6,0.5,0.7,0.9
	l0.8,2.8l-8,1.9L658.1,139z"/>
<linearGradient id="SVGID_00000165203261104234541240000008848640174995903617_" gradientUnits="userSpaceOnUse" x1="728.9848" y1="228.6013" x2="714.1148" y2="168.4913" gradientTransform="matrix(1 0 0 -1 0 392)">
	<stop  offset="0" style="stop-color:#FF1D4B"/>
	<stop  offset="1" style="stop-color:#B93DFE"/>
</linearGradient>
<path style="fill:url(#SVGID_00000165203261104234541240000008848640174995903617_);" d="M698.1,190.1c0.2,2.6,0.5,5.6,1.2,10.8
	s1.3,11.1,1.3,11.1c4.8,1.3,9.2,3.9,12.6,7.6c5.5,6.1,11.6,7,11.6,7s3.2-4.2,5.2-5.5s5.7-9.1,4.8-28.9c0,0,28.3,9.1,35.7,5.3
	c6.1-3.2,24.5-14.4,30.7-18.2c1.3-0.8,1.9-2.2,1.7-3.7l0,0c-0.3-1.8-1.3-3.4-2.7-4.5l-0.4-0.3c-1.1-0.9-2.6-1-3.9-0.4L767,184
	c-9.7-2.6-19.1-6.1-28.1-10.6c-1-0.5-1.8-1-2.4-1.3c-5.5-3.3-11.7-5.5-18.1-6.4c-6.4-0.9-18,1-23,1.5c-6.8,0.7-15.7,1-15.7,1
	l-11.7-29.4c-0.3-0.8-1.1-1.3-1.9-1.4l0,0c-2.6-0.1-5.2,0.6-7.3,2.1l-0.7,0.5c-0.7,0.5-1,1.4-0.9,2.2c1.2,5.8,5.7,27.9,8,33.1
	C669,183.6,698.1,190.1,698.1,190.1z"/>
<g>
	<path class="st14" d="M698.1,190.6c-0.3,0-0.5-0.2-0.5-0.5c0-0.4-0.9-8.7-0.6-11.5c0-0.3,0.3-0.5,0.5-0.5c0.3,0,0.5,0.3,0.5,0.5
		c-0.3,2.8,0.6,11.2,0.6,11.3C698.6,190.3,698.4,190.6,698.1,190.6C698.1,190.6,698.1,190.6,698.1,190.6z"/>
</g>
<g>
	<path class="st14" d="M734.8,192.6c-0.1,0-0.1,0-0.2,0l-5.6-2.3c-0.3-0.1-0.4-0.4-0.3-0.7c0.1-0.3,0.4-0.4,0.7-0.3l5.6,2.3
		c0.3,0.1,0.4,0.4,0.3,0.7C735.2,192.5,735,192.6,734.8,192.6z"/>
</g>
<path class="st18" d="M723.7,167.3c0.3,3.1-3.1,5.9-8.1,6.6s-8.4-0.9-8.7-3.3s2.6-5.2,7.6-5.9S723.4,164.9,723.7,167.3z"/>
<g>
	<path class="st14" d="M660.9,129c-0.1,0-0.2,0-0.2-0.1c-0.9-0.5-3.9-2.2-3.6-3.8c0.1-0.6,0.3-1,0.7-1.2c0.5-0.3,1.1-0.1,1.2,0
		c0.3,0.1,0.4,0.4,0.3,0.7c-0.1,0.3-0.4,0.4-0.7,0.3c0,0-0.2-0.1-0.3,0c-0.1,0.1-0.2,0.2-0.2,0.5c-0.1,0.6,1.5,1.9,3.1,2.8
		c0.2,0.1,0.3,0.4,0.2,0.7C661.3,128.9,661.1,129,660.9,129z"/>
</g>
<g>
	<path class="st14" d="M657.6,125.7c0,0-0.1,0-0.1,0l-5.2-1.6c-0.3-0.1-0.4-0.4-0.3-0.6c0.1-0.3,0.4-0.4,0.6-0.3l5.2,1.6
		c0.3,0.1,0.4,0.4,0.3,0.6C658,125.6,657.8,125.7,657.6,125.7z"/>
</g>
<g>
	<path class="st14" d="M658.2,132.1c-0.2,0-0.5-0.1-0.7-0.2c-0.2-0.1-0.3-0.4-0.2-0.7c0.1-0.2,0.4-0.3,0.7-0.2
		c0.1,0,0.2,0.1,0.5-0.1c0.3-0.3,0.5-0.8,0.5-0.9c-0.9-0.9-1.9-1.6-3-2.3c-0.7-0.4-2.5-0.3-3.5-0.1c-0.3,0-0.5-0.1-0.6-0.4
		c0-0.3,0.1-0.5,0.4-0.6c0.3-0.1,3-0.5,4.2,0.3c1.2,0.7,2.3,1.5,3.3,2.5c0.5,0.7,0.1,1.6-0.4,2.2C659,131.9,658.6,132.1,658.2,132.1
		z"/>
</g>
<g>
	<path class="st14" d="M656.6,133.7c-0.5,0-1.1-0.2-1.9-0.8c-0.2-0.2-0.3-0.5-0.1-0.7c0.2-0.2,0.5-0.3,0.7-0.1
		c1.4,1,1.6,0.6,2.1,0.1l0.2-0.2c0-0.3-1.1-1-1.5-1.3l-0.3-0.2c-0.7-0.3-1.6-0.5-2.5-0.4c-0.3,0-0.5-0.2-0.5-0.4
		c0-0.3,0.2-0.5,0.4-0.6c1.1-0.1,2.1,0.1,3.1,0.5l0.4,0.2c0.9,0.6,1.9,1.2,2,2c0,0.3,0,0.5-0.2,0.8l-0.1,0.2
		C657.8,133.3,657.3,133.7,656.6,133.7z"/>
</g>
<g>
	<path class="st14" d="M659.4,130.2c-0.2,0-0.4-0.1-0.5-0.3c-0.1-0.3,0-0.5,0.3-0.7c0.4-0.2,0.7-0.6,0.8-1c0-0.3,0.3-0.5,0.6-0.4
		c0.3,0,0.5,0.3,0.4,0.6c-0.1,0.8-0.6,1.5-1.4,1.8C659.6,130.2,659.5,130.2,659.4,130.2z"/>
</g>
<path class="st13" d="M709.4,169.5c0.2-2.5,0.2-5,0.1-7.4c-0.3-1.9-2.3-4.5-2.3-4.5c1.7-1.1,3.7-1.6,5.8-1.5c3.3,0.3,5.6,0.6,6,2.4
	c0.9,3,1.4,6.2,1.5,9.3c0,2.4-5,3.8-8.7,3.4C709.3,170.9,709.4,169.5,709.4,169.5z"/>
<g class="st23">
	<path class="st14" d="M720.5,165.8c0-2.8-1.2-6.3-1.5-7.4c-0.5-1.8-2.7-2.1-6-2.4c-2-0.1-4.1,0.4-5.8,1.5c0,0,2,2.6,2.3,4.5
		c0.1,2.2,0.1,4.4-0.1,6.6C711.5,168.9,718.1,168.2,720.5,165.8z"/>
</g>
<path class="st13" d="M723.8,157.6c-0.6-3.9-1.4-7.9-2.4-11.7c-0.7-1.9-1-2.2-4.8-3.1s-7.6,3.5-9.2,5.5c-0.4,0.5-0.6,1.2-0.7,1.8
	c-0.3,2.1,0.2,4.8-0.6,4.5l0,0c1.7,2,4.4,5.7,2.9,6.3c7.3,5.6,9.3,4.9,12.7,3.8C724,164.1,724.3,160.7,723.8,157.6z M723.3,155
	l-0.1-0.1L723.3,155z M723.1,154.9L723.1,154.9L723.1,154.9z"/>
<path class="st14" d="M710.5,158.4l-2.2-4.2c0,0,3.8-0.7,1.8-4.7c2,1,4.2,1.2,6.4,0.8c2-0.6,3.8-1.5,5.4-2.8l0.8,3.8
	c0,0,3.3-3.6,2.5-7.6S720,139,720,139c1.1-0.3,1.7-1.4,1.4-2.4c0-0.1,0-0.2-0.1-0.2c-0.7-2.1-9.6-1.2-15.7,3.4s-5.1,9.3-4.2,11.6
	c0.8,1.7,1.9,3.2,3.4,4.3l2.5,0.5C707.3,156.1,708.3,159.1,710.5,158.4z"/>
<g>
	
		<rect x="716.9" y="153.1" transform="matrix(0.9427 -0.3335 0.3335 0.9427 -10.0209 248.1682)" class="st14" width="1.7" height="0.4"/>
</g>
<g>
	<path class="st14" d="M711.5,155.1C711.4,155.1,711.4,155.1,711.5,155.1l-5.9-1.6c-0.1,0-0.2-0.2-0.2-0.3c0-0.1,0.1-0.2,0.3-0.2
		l5.8,1.6c0.1,0,0.2,0.2,0.2,0.3C711.6,155,711.5,155.1,711.5,155.1z"/>
</g>
<linearGradient id="SVGID_00000011001404863854323640000017181666401981422749_" gradientUnits="userSpaceOnUse" x1="-100.3337" y1="4221.9956" x2="-100.1037" y2="4223.0557" gradientTransform="matrix(0.95 -0.53 -0.49 -0.78 2877.4099 3391.3301)">
	<stop  offset="0" style="stop-color:#FF8538"/>
	<stop  offset="1" style="stop-color:#F5F5F5"/>
</linearGradient>
<path style="opacity:0.5;fill:url(#SVGID_00000011001404863854323640000017181666401981422749_);enable-background:new    ;" d="
	M716.4,155.6l-3.2,1.1c-0.5,0.2-1.1-0.1-1.3-0.6c0,0,0,0,0,0l-0.5-1.5c-0.2-0.5,0.1-1.1,0.7-1.2c0,0,0,0,0,0l3.2-1.1
	c0.5-0.2,1.1,0.1,1.3,0.6c0,0,0,0,0,0l0.5,1.5C717.3,154.8,717,155.4,716.4,155.6C716.4,155.6,716.4,155.6,716.4,155.6z"/>
<linearGradient id="SVGID_00000157309296860550172610000007869578316233337785_" gradientUnits="userSpaceOnUse" x1="-93.9255" y1="4220.8862" x2="-93.6955" y2="4221.9463" gradientTransform="matrix(0.95 -0.53 -0.49 -0.78 2877.4099 3391.3301)">
	<stop  offset="0" style="stop-color:#FF8538"/>
	<stop  offset="1" style="stop-color:#F5F5F5"/>
</linearGradient>
<path style="opacity:0.5;fill:url(#SVGID_00000157309296860550172610000007869578316233337785_);enable-background:new    ;" d="
	M723.1,153.3l-3.2,1.1c-0.5,0.2-1.1-0.1-1.3-0.6c0,0,0,0,0,0l-0.5-1.5c-0.2-0.5,0.1-1.1,0.7-1.3c0,0,0,0,0.1,0l3.2-1.1
	c0.5-0.2,1.1,0.1,1.3,0.6c0,0,0,0,0,0l0.5,1.5C724,152.5,723.7,153.1,723.1,153.3C723.2,153.2,723.1,153.3,723.1,153.3z"/>
<g>
	<path class="st14" d="M712.9,156.9c-0.2,0-0.3,0-0.5-0.1c-0.3-0.1-0.5-0.4-0.6-0.7l-0.5-1.5c-0.2-0.6,0.2-1.3,0.8-1.5l3.2-1.1
		c0.3-0.1,0.6-0.1,0.9,0c0.3,0.1,0.5,0.4,0.6,0.7l0.5,1.5c0.2,0.6-0.2,1.3-0.8,1.5l0,0l-3.2,1.1C713.2,156.9,713,156.9,712.9,156.9z
		 M715.7,152.4c-0.1,0-0.2,0-0.3,0.1l-3.2,1.1c-0.5,0.1-0.7,0.6-0.6,1l0.5,1.5c0.1,0.2,0.2,0.4,0.4,0.4c0.2,0.1,0.4,0.1,0.6,0
		l3.2-1.1l0,0.2l0-0.2c0.4-0.1,0.6-0.6,0.5-1l-0.5-1.5c-0.1-0.2-0.2-0.4-0.4-0.4C715.9,152.4,715.8,152.4,715.7,152.4z"/>
</g>
<g>
	<path class="st14" d="M719.6,154.6c-0.2,0-0.3,0-0.5-0.1c-0.3-0.1-0.5-0.4-0.6-0.7l-0.5-1.5c-0.2-0.6,0.2-1.3,0.8-1.5l0.1,0l3.2-1
		c0.3-0.1,0.6-0.1,0.9,0s0.5,0.4,0.6,0.7l0.5,1.5c0.2,0.6-0.2,1.3-0.8,1.5l-0.1,0l-3.2,1C719.9,154.6,719.7,154.6,719.6,154.6z
		 M718.8,151l0.1,0.2c-0.4,0.1-0.6,0.6-0.5,1l0.5,1.5c0.1,0.2,0.2,0.4,0.4,0.4c0.2,0.1,0.4,0.1,0.6,0l3.3-1.1c0.4-0.1,0.6-0.6,0.5-1
		l-0.5-1.5c-0.1-0.2-0.2-0.4-0.4-0.4c-0.2-0.1-0.4-0.1-0.6,0l-3.2,1.1L718.8,151z"/>
</g>
<g>
	<path class="st13" d="M707.6,154.1C707.6,154.1,707.6,154.1,707.6,154.1l-1.6-0.3c-0.1,0-0.2-0.1-0.2-0.3s0.1-0.2,0.3-0.2l1.5,0.3
		c0.1,0,0.2,0.1,0.2,0.3C707.8,154,707.7,154.1,707.6,154.1z"/>
</g>
<path class="st13" d="M706.1,154.9c-1.8-0.8-3.7,1-1.2,4s4,2.1,4,2.1C710.4,160.4,707.8,156.9,706.1,154.9z"/>
<path class="st30" d="M733.5,310.3l4.3-0.1c0.8,0,1.7-0.1,2.5-0.3c0.7-0.3,1.1-0.9,0.5-1.3c-0.5-0.2-1-0.4-1.6-0.4
	c-10.7-0.8-21.5-1-32.3-0.6c-2.5,0.1-5.5,0.3-6.8,1.6c-0.1,0.1-0.1,0.2-0.1,0.3c0,0.1,0.1,0.2,0.2,0.3c1,0.4,2,0.7,3.1,0.6
	c4.5,0.1,8.8-0.6,13-0.2c4.9,0.4,9.8,0.5,14.8,0.3L733.5,310.3z"/>
<g>
	<path class="st14" d="M750.3,126.9c-0.2,0-0.3-0.1-0.4-0.2c-0.2-0.2-0.1-0.5,0.1-0.7l58.5-41.2c0.2-0.2,0.5-0.1,0.7,0.1
		c0.2,0.2,0.1,0.5-0.1,0.7l-58.5,41.2C750.5,126.9,750.4,126.9,750.3,126.9z"/>
</g>
<g>
	<path class="st14" d="M732,116.3c-0.1,0-0.2,0-0.2-0.1c-0.2-0.1-0.3-0.4-0.2-0.7l9.1-17.2c0.1-0.2,0.4-0.3,0.7-0.2
		c0.2,0.1,0.3,0.4,0.2,0.7l-9.1,17.2C732.3,116.2,732.2,116.3,732,116.3z"/>
</g>
<g>
	<path class="st14" d="M710.7,116.3c-0.3,0-0.5-0.2-0.5-0.5v-14.2c0-0.3,0.2-0.5,0.5-0.5s0.5,0.2,0.5,0.5v14.2
		C711.2,116.1,710.9,116.3,710.7,116.3z"/>
</g>
<g>
	<path class="st30" d="M709.6,116.3c-0.3,0-0.5-0.2-0.5-0.5v-14.2c0-0.3,0.2-0.5,0.5-0.5s0.5,0.2,0.5,0.5v14.2
		C710.1,116.1,709.9,116.3,709.6,116.3z"/>
</g>
<g>
	<path class="st30" d="M730.9,116.3c-0.1,0-0.2,0-0.2-0.1c-0.2-0.1-0.3-0.4-0.2-0.7l7-13.8c0.1-0.2,0.4-0.3,0.7-0.2
		c0.2,0.1,0.3,0.4,0.2,0.7l-7,13.8C731.2,116.2,731.1,116.3,730.9,116.3z"/>
</g>
<g>
	<path class="st14" d="M710.7,91.5c-0.3,0-0.5-0.2-0.5-0.5V37.1c0-0.3,0.2-0.5,0.5-0.5s0.5,0.2,0.5,0.5V91
		C711.2,91.2,710.9,91.5,710.7,91.5z"/>
</g>
<polygon class="st13" points="395.7,92.7 387.4,92.7 379.1,92.7 370.8,92.7 362.5,92.7 354.2,92.7 345.9,92.7 337.6,92.7 
	329.4,92.7 321,92.7 312.8,92.7 304.5,92.7 304.5,96.8 312.8,96.8 321,96.8 329.4,96.8 337.6,96.8 345.9,96.8 354.2,96.8 
	362.5,96.8 370.8,96.8 379.1,96.8 387.4,96.8 395.7,96.8 404,96.8 404,92.7 "/>
<rect x="304.5" y="76.1" class="st14" width="8.3" height="8.3"/>
<rect x="312.8" y="76.1" class="st16" width="8.3" height="8.3"/>
<rect x="321" y="76.1" class="st14" width="8.3" height="8.3"/>
<rect x="329.4" y="76.1" class="st16" width="8.3" height="8.3"/>
<rect x="329.3" y="84.4" class="st14" width="8.3" height="8.3"/>
<rect x="321.1" y="84.4" class="st16" width="8.3" height="8.3"/>
<rect x="312.8" y="84.4" class="st14" width="8.3" height="8.3"/>
<rect x="304.5" y="84.4" class="st16" width="8.3" height="8.3"/>
<rect x="337.6" y="76.1" class="st14" width="8.3" height="8.3"/>
<rect x="346" y="76.1" class="st16" width="8.3" height="8.3"/>
<rect x="354.2" y="76.1" class="st14" width="8.3" height="8.3"/>
<rect x="362.5" y="76.1" class="st16" width="8.3" height="8.3"/>
<rect x="362.5" y="84.4" class="st14" width="8.3" height="8.3"/>
<rect x="354.2" y="84.4" class="st16" width="8.3" height="8.3"/>
<rect x="345.9" y="84.4" class="st14" width="8.3" height="8.3"/>
<rect x="337.6" y="84.4" class="st16" width="8.3" height="8.3"/>
<rect x="370.8" y="76.1" class="st14" width="8.3" height="8.3"/>
<rect x="379.1" y="76.1" class="st16" width="8.3" height="8.3"/>
<rect x="387.4" y="76.1" class="st14" width="8.3" height="8.3"/>
<rect x="395.7" y="76.1" class="st16" width="8.3" height="8.3"/>
<rect x="395.7" y="84.4" class="st14" width="8.3" height="8.3"/>
<rect x="387.4" y="84.4" class="st16" width="8.3" height="8.3"/>
<rect x="379.1" y="84.4" class="st14" width="8.3" height="8.3"/>
<rect x="370.8" y="84.4" class="st16" width="8.3" height="8.3"/>
<path class="st14" d="M303.6,71.9L303.6,71.9c0.5,0,0.9,0.4,0.9,0.9v37.5l0,0h-1.7l0,0V72.7C302.7,72.3,303.1,71.9,303.6,71.9
	C303.6,71.9,303.6,71.9,303.6,71.9z"/>
<path class="st14" d="M404.9,71.9L404.9,71.9c0.5,0,0.9,0.4,0.9,0.9v37.5l0,0H404l0,0V72.7C404,72.3,404.4,71.9,404.9,71.9
	C404.9,71.9,404.9,71.9,404.9,71.9z"/>
</svg>
